<svg width="41" height="45" viewBox="0 0 41 45" fill="none" xmlns="http://www.w3.org/2000/svg">
<path fill-rule="evenodd" clip-rule="evenodd" d="M19.1596 0.488808C20.033 0.220365 20.9669 0.220365 21.8403 0.488808L28.6826 2.5918C32.2522 3.68892 35.6423 5.30193 38.7453 7.37969C41.1587 8.99575 40.0147 12.7604 37.1102 12.7604H3.88976C0.985188 12.7604 -0.158808 8.99575 2.25467 7.37969C5.35766 5.30193 8.74771 3.68892 12.3173 2.5918L19.1596 0.488808ZM20.8304 3.77461C20.6151 3.70843 20.3848 3.70843 20.1695 3.77461L13.3272 5.87761C10.6212 6.7093 8.02852 7.86668 5.60573 9.32286H35.3942C32.9714 7.86668 30.3787 6.7093 27.6727 5.8776L20.8304 3.77461Z" fill="#7A86CA"/>
<path d="M2.73956 43.125C2.73956 42.1757 3.50907 41.4062 4.45831 41.4062H36.5416C37.4909 41.4062 38.2604 42.1757 38.2604 43.125C38.2604 44.0742 37.4909 44.8437 36.5416 44.8437H4.45831C3.50907 44.8437 2.73956 44.0742 2.73956 43.125Z" fill="#7A86CA"/>
<path d="M7.32289 33.9583C7.32289 34.9075 8.0924 35.677 9.04164 35.677C9.99088 35.677 10.7604 34.9075 10.7604 33.9583L10.7604 20.2083C10.7604 19.259 9.99088 18.4895 9.04164 18.4895C8.0924 18.4895 7.32289 19.2591 7.32289 20.2083L7.32289 33.9583Z" fill="#7A86CA"/>
<path d="M20.5 35.677C19.5507 35.677 18.7812 34.9075 18.7812 33.9583L18.7812 20.2083C18.7812 19.2591 19.5507 18.4895 20.5 18.4895C21.4492 18.4895 22.2187 19.259 22.2187 20.2083V33.9583C22.2187 34.9075 21.4492 35.677 20.5 35.677Z" fill="#7A86CA"/>
<path d="M30.2396 33.9583C30.2396 34.9075 31.0091 35.677 31.9583 35.677C32.9075 35.677 33.6771 34.9075 33.6771 33.9583V20.2083C33.6771 19.259 32.9075 18.4895 31.9583 18.4895C31.0091 18.4895 30.2396 19.2591 30.2396 20.2083V33.9583Z" fill="#7A86CA"/>
</svg>
