<svg width="39" height="39" viewBox="0 0 39 39" fill="none" xmlns="http://www.w3.org/2000/svg">
<path d="M8.05856 19.5001C8.05856 18.5508 8.82807 17.7813 9.77731 17.7813H17.7812V9.77734C17.7812 8.8281 18.5507 8.05859 19.5 8.05859C20.4492 8.05859 21.2187 8.8281 21.2187 9.77734V17.7813H29.2227C30.172 17.7813 30.9415 18.5508 30.9415 19.5001C30.9415 20.4493 30.172 21.2188 29.2227 21.2188H21.2187V29.2228C21.2187 30.172 20.4492 30.9415 19.5 30.9415C18.5507 30.9415 17.7812 30.172 17.7812 29.2228V21.2188H9.77731C8.82807 21.2188 8.05856 20.4493 8.05856 19.5001Z" fill="#7A86CA"/>
<path fill-rule="evenodd" clip-rule="evenodd" d="M8.76748 0.636807C15.8431 -0.154001 23.1567 -0.154001 30.2324 0.636807C34.4178 1.10459 37.7978 4.40148 38.2902 8.61119C39.1363 15.8458 39.1363 23.1544 38.2902 30.389C37.7978 34.5987 34.4178 37.8956 30.2324 38.3634C23.1567 39.1542 15.8431 39.1542 8.76748 38.3634C4.58202 37.8956 1.20205 34.5987 0.709688 30.389C-0.136465 23.1544 -0.136465 15.8458 0.709688 8.61119C1.20205 4.40148 4.58203 1.10459 8.76748 0.636807ZM29.8506 4.05304C23.0287 3.29059 15.9712 3.29059 9.1493 4.05304C6.52664 4.34616 4.42736 6.41609 4.12392 9.01051C3.30879 15.9798 3.30879 23.0204 4.12392 29.9897C4.42736 32.5841 6.52664 34.654 9.14929 34.9471C15.9712 35.7096 23.0287 35.7096 29.8506 34.9471C32.4732 34.654 34.5725 32.5841 34.8759 29.9897C35.6911 23.0204 35.6911 15.9798 34.8759 9.01051C34.5725 6.41609 32.4732 4.34616 29.8506 4.05304Z" fill="#7A86CA"/>
</svg>
