<svg width="35" height="45" viewBox="0 0 35 45" fill="none" xmlns="http://www.w3.org/2000/svg">
<path d="M14.0625 31.6666C14.0625 29.7681 15.6015 28.2291 17.5 28.2291C19.3985 28.2291 20.9375 29.7681 20.9375 31.6666C20.9375 33.5651 19.3985 35.1041 17.5 35.1041C15.6015 35.1041 14.0625 33.5651 14.0625 31.6666Z" fill="#989898"/>
<path fill-rule="evenodd" clip-rule="evenodd" d="M7.46627 19.2851L6.74339 12.7791C6.65071 11.945 6.65071 11.1032 6.74339 10.2691L6.79556 9.7995C7.34897 4.81881 11.2645 0.877928 16.2415 0.292398C17.0776 0.194038 17.9223 0.194038 18.7583 0.292398C23.7354 0.877928 27.6509 4.81881 28.2043 9.7995L28.2565 10.2691C28.3492 11.1032 28.3492 11.945 28.2565 12.7791L27.5336 19.2851L29.1071 19.4107C31.5883 19.6088 33.6144 21.474 34.0166 23.9304C34.8555 29.0538 34.8555 34.2795 34.0166 39.4029C33.6144 41.8593 31.5883 43.7245 29.1071 43.9226L25.6784 44.1963C20.2348 44.6309 14.7653 44.6309 9.32168 44.1963L5.89304 43.9226C3.41179 43.7245 1.38572 41.8593 0.983495 39.4029C0.14458 34.2795 0.14458 29.0538 0.983495 23.9304C1.38572 21.474 3.41179 19.6088 5.89304 19.4107L7.46627 19.2851ZM16.6432 3.70635C17.2124 3.63939 17.7875 3.63939 18.3567 3.70635C21.7452 4.105 24.4111 6.78809 24.7878 10.1791L24.84 10.6487C24.9047 11.2305 24.9047 11.8177 24.84 12.3995L24.104 19.0234C19.7059 18.7402 15.294 18.7402 10.8959 19.0235L10.1599 12.3995C10.0952 11.8177 10.0952 11.2305 10.1599 10.6487L10.212 10.1791C10.5888 6.78809 13.2546 4.105 16.6432 3.70635ZM25.4049 22.5636C20.1434 22.1435 14.8567 22.1435 9.59523 22.5636L6.16659 22.8373C5.26155 22.9095 4.52253 23.5899 4.37582 24.4859C3.59714 29.2414 3.59714 34.0919 4.37582 38.8474C4.52253 39.7434 5.26155 40.4237 6.1666 40.496L9.59523 40.7697C14.8567 41.1897 20.1434 41.1897 25.4049 40.7697L28.8335 40.496C29.7386 40.4237 30.4776 39.7434 30.6243 38.8474C31.403 34.0919 31.403 29.2414 30.6243 24.4859C30.4776 23.5899 29.7386 22.9095 28.8335 22.8373L25.4049 22.5636Z" fill="#989898"/>
</svg>
