<svg width="51" height="27" viewBox="0 0 51 27" fill="none" xmlns="http://www.w3.org/2000/svg">
<path d="M14.0416 8.91663C11.5103 8.91663 9.45831 10.9687 9.45831 13.5C9.45831 16.0313 11.5103 18.0833 14.0416 18.0833C16.573 18.0833 18.625 16.0313 18.625 13.5C18.625 10.9687 16.573 8.91663 14.0416 8.91663Z" fill="#7A86CA"/>
<path fill-rule="evenodd" clip-rule="evenodd" d="M14.0416 0.322876C6.76414 0.322876 0.864563 6.22246 0.864563 13.5C0.864563 20.7775 6.76414 26.677 14.0416 26.677C19.0388 26.677 23.383 23.8956 25.6164 19.802H32.9479V24.9583C32.9479 25.9075 33.7174 26.677 34.6666 26.677H42.6875C43.6367 26.677 44.4062 25.9075 44.4062 24.9583V19.802H48.4166C49.3659 19.802 50.1354 19.0325 50.1354 18.0833V11.2083C50.1354 8.9934 48.3399 7.19788 46.125 7.19788H25.6164C23.383 3.1043 19.0388 0.322876 14.0416 0.322876ZM4.30206 13.5C4.30206 8.12094 8.66262 3.76038 14.0416 3.76038C18.0328 3.76038 21.4671 6.16133 22.9716 9.60476C23.2451 10.2308 23.8634 10.6354 24.5465 10.6354H46.125C46.4414 10.6354 46.6979 10.8919 46.6979 11.2083V16.3645H42.6875C41.7382 16.3645 40.9687 17.1341 40.9687 18.0833V23.2395H36.3854V18.0833C36.3854 17.1341 35.6159 16.3645 34.6666 16.3645H24.5465C23.8634 16.3645 23.2451 16.7691 22.9716 17.3952C21.4671 20.8386 18.0328 23.2395 14.0416 23.2395C8.66262 23.2395 4.30206 18.879 4.30206 13.5Z" fill="#7A86CA"/>
</svg>
