<svg width="43" height="39" viewBox="0 0 43 39" fill="none" xmlns="http://www.w3.org/2000/svg">
<path fill-rule="evenodd" clip-rule="evenodd" d="M42.8437 19.5C42.8437 20.1242 42.5053 20.6993 41.9597 21.0025L36.7293 23.9082C26.3907 29.6519 15.4921 34.324 4.20348 37.8517L2.67933 38.328C2.15745 38.4911 1.58911 38.3962 1.14858 38.0723C0.708063 37.7484 0.447913 37.2343 0.447913 36.6875L0.447913 23.5104C0.447913 22.6143 1.13637 21.8686 2.0296 21.7972L2.55056 21.7555C7.48098 21.361 12.3735 20.6066 17.189 19.4993C12.3058 18.3766 7.34358 17.6168 2.34289 17.2273L2.03319 17.2032C1.13843 17.1335 0.447913 16.3871 0.447913 15.4896L0.447914 2.31251C0.447914 1.76575 0.708065 1.2516 1.14859 0.927731C1.58911 0.603862 2.15745 0.508913 2.67933 0.671999L4.20345 1.14829C15.4921 4.67599 26.3907 9.3481 36.7294 15.0918L41.9597 17.9976C42.5053 18.3007 42.8437 18.8758 42.8437 19.5ZM37.5859 19.5L35.06 18.0967C25.1421 12.5868 14.6986 8.08294 3.88541 4.65203L3.88541 13.9074C10.6002 14.513 17.2419 15.765 23.7181 17.6465L24.417 17.8495C25.1518 18.063 25.657 18.7365 25.6562 19.5017C25.6555 20.2669 25.149 20.9394 24.4138 21.1514L23.5187 21.4096C17.1056 23.2593 10.5313 24.4921 3.88541 25.0917L3.88541 34.348C14.6985 30.9171 25.1421 26.4132 35.0599 20.9033L37.5859 19.5Z" fill="#7A86CA"/>
</svg>
